# xmcd
#
# Track frame offsets:
#	150
#	17728
#	33054
#	45803
#	65783
#	82161
#	97834
#	113430
#	127515
#	138531
#	153891
#	167105
#	182786
#	196849
#
# Disc length: 2843 seconds
#
# Revision: 1
# Processed by: cddbd v1.5.2PL0 Copyright (c) Steve Scherf et al.
# Submitted via: audiograbber 1.83.01
#
DISCID=a20b190e
DTITLE=Cripple Creek Band - Still Alive and Kickin'
DYEAR=2011
DGENRE=Country
TTITLE0=Too Hot To Handle
TTITLE1=Alive And Kickin'
TTITLE2=Forgot To Forget
TTITLE3=Blue Water
TTITLE4=Wild Lady
TTITLE5=Who, What, When
TTITLE6=Good Looking Woman
TTITLE7=Glass Heart
TTITLE8=Sortso Gab
TTITLE9=Straight Whiskey Woman
TTITLE10=Star Of Mine
TTITLE11=Happy Hours In Heaven
TTITLE12=Hallelujah
TTITLE13=Bad Case Of Lovin You
EXTD=
EXTT0=
EXTT1=
EXTT2=
EXTT3=
EXTT4=
EXTT5=
EXTT6=
EXTT7=
EXTT8=
EXTT9=
EXTT10=
EXTT11=
EXTT12=
EXTT13=
PLAYORDER=
